<?xml version="1.0" encoding="iso-8859-1"?>
<!-- Generator: Adobe Illustrator 19.0.0, SVG Export Plug-In . SVG Version: 6.00 Build 0)  -->
<svg width="24px" height="24px" version="1.1" id="Layer_1" xmlns="http://www.w3.org/2000/svg" xmlns:xlink="http://www.w3.org/1999/xlink" x="0px"
     y="0px"
     viewBox="0 0 512 512" style="enable-background:new 0 0 512 512;" xml:space="preserve">
<polygon style="fill:#FFFFFF;" points="256,73.376 106.531,203.822 73.919,275.023 394.599,275.023 372.858,175.363 "/>
  <polygon style="fill:#D7E1E1;" points="405.469,203.822 438.081,275.023 372.858,275.023 372.858,175.363 "/>
  <path style="fill:#35696A;"
        d="M256,133.707v97.834c27.013,0,48.917-21.904,48.917-48.917S283.013,133.707,256,133.707z"/>
  <polygon style="fill:#AFC3C3;" points="438.081,264.153 405.469,503.847 372.858,503.847 329.376,384 372.858,264.153 "/>
  <g>
	<polygon style="fill:#D7E1E1;" points="73.919,264.153 106.531,503.847 171.754,503.847 256,471.236 340.246,503.847
		372.858,503.847 372.858,264.153 	"/>
    <path style="fill:#D7E1E1;" d="M340.246,403.295v100.552h-32.611l-84.246-100.552L256,319.049
		C302.45,319.049,340.246,356.846,340.246,403.295z"/>
</g>
  <path style="fill:#FFFFFF;" d="M171.754,403.295v100.552h32.611L256,403.295v-84.246
	C209.55,319.049,171.754,356.846,171.754,403.295z"/>
  <path style="fill:#FF6638;" d="M307.635,403.295v100.552H256v-1.087l-32.611-75.006L256,351.66
	C284.47,351.66,307.635,374.825,307.635,403.295z"/>
  <path style="fill:#FF883E;" d="M256,502.76v1.087h-51.635V403.295c0-28.47,23.165-51.635,51.635-51.635V502.76z"/>
  <path style="fill:#5E8788;" d="M256,133.707c9.001,0,16.306,21.904,16.306,48.917s-7.305,48.917-16.306,48.917
	c-27.013,0-48.917-21.904-48.917-48.917S228.987,133.707,256,133.707z"/>
  <polygon style="fill:#35696A;" points="502.901,138.599 454.386,171.21 454.386,9.24 "/>
  <polygon style="fill:#5E8788;" points="470.562,138.599 438.222,160.34 405.882,138.599 454.386,9.24 "/>
  <polygon style="fill:#35696A;" points="106.129,138.599 57.614,171.21 57.614,9.24 "/>
  <polygon style="fill:#5E8788;" points="73.789,138.599 41.449,160.34 9.109,138.599 57.614,9.24 "/>
  <polygon style="fill:#AFC3C3;" points="503.304,139.686 503.304,264.153 448.951,296.764 470.692,139.686 470.562,138.599
	502.901,138.599 "/>
  <polygon style="fill:#D7E1E1;" points="470.562,138.599 405.882,138.599 405.469,139.686 405.469,264.153 470.692,264.153
	470.692,139.686 "/>
  <polygon style="fill:#AFC3C3;" points="106.129,138.599 73.789,138.599 73.919,139.686 52.178,296.764 106.531,264.153
	106.531,139.686 "/>
  <polygon style="fill:#D7E1E1;" points="73.919,139.686 73.919,264.153 8.696,264.153 8.696,139.686 9.109,138.599 73.789,138.599
	"/>
  <polygon style="fill:#86A5A6;" points="503.304,264.153 503.304,503.847 470.692,503.847 438.081,384 470.692,264.153 "/>
  <rect x="405.469" y="264.153" style="fill:#AFC3C3;" width="65.223" height="239.694"/>
  <polygon style="fill:#86A5A6;" points="106.531,264.153 106.531,503.847 73.919,503.847 41.308,384 73.919,264.153 "/>
  <rect x="8.696" y="264.153" style="fill:#AFC3C3;" width="65.223" height="239.694"/>
  <g>
	<path style="fill:#5E8788;" d="M57.614,171.21c-9.005,0-16.306,7.301-16.306,16.306v76.637h32.611v-76.637
		C73.919,178.511,66.619,171.21,57.614,171.21z"/>
    <path style="fill:#5E8788;" d="M454.386,171.21c-9.005,0-16.306,7.301-16.306,16.306v76.637h32.611v-76.637
		C470.692,178.511,463.392,171.21,454.386,171.21z"/>
</g>
  <path d="M57.614,288.611c-4.504,0-8.153,3.65-8.153,8.153v76.637c0,4.503,3.649,8.153,8.153,8.153s8.153-3.65,8.153-8.153v-76.637
	C65.766,292.262,62.117,288.611,57.614,288.611z"/>
  <path d="M454.386,288.611c-4.504,0-8.153,3.65-8.153,8.153v76.637c0,4.503,3.649,8.153,8.153,8.153c4.504,0,8.153-3.65,8.153-8.153
	v-76.637C462.539,292.262,458.89,288.611,454.386,288.611z"/>
  <path d="M510.937,136.824L462.02,6.378c-1.193-3.183-4.235-5.291-7.633-5.291c-3.398,0-6.441,2.108-7.633,5.291l-48.917,130.446
	c-0.342,0.915-0.52,1.885-0.52,2.862v46.2L264.153,69.67V58.648c12.531-3.559,21.741-15.098,21.741-28.755
	C285.894,13.41,272.483,0,256,0c-16.483,0-29.894,13.41-29.894,29.894c0,13.657,9.209,25.196,21.741,28.755V69.67L114.684,185.885
	v-46.2c0-0.977-0.176-1.948-0.52-2.862L65.247,6.378c-1.192-3.183-4.235-5.291-7.633-5.291s-6.441,2.108-7.633,5.291L1.063,136.824
	c-0.344,0.914-0.52,1.885-0.52,2.862v364.161c0,4.503,3.649,8.153,8.153,8.153h494.607c4.504,0,8.153-3.65,8.153-8.153V139.686
	C511.457,138.709,511.28,137.738,510.937,136.824z M454.386,163.057c-13.486,0-24.459,10.972-24.459,24.459v44.025
	c0,4.503,3.649,8.153,8.153,8.153c4.504,0,8.153-3.65,8.153-8.153v-44.025c0-4.496,3.657-8.153,8.153-8.153
	c4.496,0,8.153,3.657,8.153,8.153V256h-48.917V146.752h81.529V256h-16.306v-68.484C478.845,174.029,467.872,163.057,454.386,163.057
	z M454.386,32.459l36.744,97.987h-73.49L454.386,32.459z M242.412,29.894c0-7.493,6.095-13.588,13.588-13.588
	c7.493,0,13.588,6.095,13.588,13.588S263.493,43.482,256,43.482C248.507,43.482,242.412,37.387,242.412,29.894z M57.614,163.057
	c-13.486,0-24.459,10.972-24.459,24.459v44.025c0,4.503,3.649,8.153,8.153,8.153s8.153-3.65,8.153-8.153v-44.025
	c0-4.496,3.657-8.153,8.153-8.153s8.153,3.657,8.153,8.153V256H16.849V146.752h81.529V256H82.072v-68.484
	C82.072,174.029,71.1,163.057,57.614,163.057z M57.614,32.459l36.744,97.987H20.869L57.614,32.459z M16.849,495.694V272.306h81.529
	v223.389H16.849z M332.093,495.694h-16.306v-92.399c0-32.967-26.821-59.788-59.788-59.788s-59.788,26.821-59.788,59.788v92.399
	h-16.306v-92.399c0-41.958,34.136-76.093,76.093-76.093s76.093,34.135,76.093,76.093V495.694z M247.847,495.694h-35.329v-92.399
	c0-21.189,15.238-38.876,35.329-42.705V495.694z M264.153,360.59c20.091,3.829,35.329,21.515,35.329,42.705v92.399h-35.329V360.59z
	 M397.316,495.694h-48.917v-92.399c0-50.949-41.45-92.399-92.399-92.399s-92.399,41.45-92.399,92.399v92.399h-48.917V207.527
	L256,84.196l141.316,123.331V495.694z M413.622,495.694V272.306h81.529v223.389H413.622z"/>
  <path d="M256,239.694c31.468,0,57.07-25.601,57.07-57.07s-25.602-57.07-57.07-57.07s-57.07,25.601-57.07,57.07
	S224.532,239.694,256,239.694z M256,141.86c22.478,0,40.764,18.286,40.764,40.764S278.478,223.389,256,223.389
	c-22.478,0-40.764-18.286-40.764-40.764S233.522,141.86,256,141.86z"/>
  <path d="M372.858,256H139.142c-4.504,0-8.153,3.65-8.153,8.153c0,4.503,3.649,8.153,8.153,8.153h233.715
	c4.504,0,8.153-3.65,8.153-8.153C381.011,259.65,377.361,256,372.858,256z"/>
  <g>
</g>
  <g>
</g>
  <g>
</g>
  <g>
</g>
  <g>
</g>
  <g>
</g>
  <g>
</g>
  <g>
</g>
  <g>
</g>
  <g>
</g>
  <g>
</g>
  <g>
</g>
  <g>
</g>
  <g>
</g>
  <g>
</g>
</svg>
