<?xml version="1.0" encoding="iso-8859-1"?>
<!-- Generator: Adobe Illustrator 19.0.0, SVG Export Plug-In . SVG Version: 6.00 Build 0)  -->
<svg width="24px" height="24px" version="1.1" id="Layer_1" xmlns="http://www.w3.org/2000/svg"
     xmlns:xlink="http://www.w3.org/1999/xlink" x="0px" y="0px"
     viewBox="0 0 460 460" style="enable-background:new 0 0 460 460;" xml:space="preserve">
<g id="XMLID_1030_">
	<path id="XMLID_1031_" style="fill:#624950;" d="M314.246,124.509l-84.245-1.306L220,176.601L230,230l110.001,120.001
		C399.118,350,460,340,460,340L314.246,124.509z"/>
  <polygon id="XMLID_1032_" style="fill:#66DBBF;" points="230.001,123.203 272.792,165.9 314.246,124.509 230.001,0 220.001,61.601
			"/>
  <polygon id="XMLID_1033_" style="fill:#967151;" points="145.754,124.509 229.999,123.203 229.999,230.001 119.999,350.001 0,340
		"/>
  <polygon id="XMLID_1034_" style="fill:#A3E9D9;" points="229.999,123.203 187.208,165.9 145.754,124.509 229.999,0 	"/>
  <path id="XMLID_1035_" style="fill:#3C261B;" d="M340,340l-110,10l-10-65l10-55C290.75,230,340,279.25,340,340z"/>
  <path id="XMLID_1036_" style="fill:#624950;" d="M230,230v120l-110-10C120,279.25,169.25,230,230,230z"/>
  <polygon id="XMLID_1037_" style="fill:#66DBBF;" points="460,370 460,460 230,460 220,417 230,370 344.665,360 	"/>
  <polygon id="XMLID_1038_" style="fill:#A3E9D9;" points="230,370 230,460 0,460 0,370 115.335,360 	"/>
  <rect id="XMLID_1039_" x="55.334" y="400" style="fill:#66DBBF;" width="60" height="30"/>
  <rect id="XMLID_1040_" x="284.665" y="400" style="fill:#A3E9D9;" width="60" height="30"/>
  <rect id="XMLID_1041_" x="374.665" y="400" style="fill:#A3E9D9;" width="30" height="30"/>
  <polygon id="XMLID_1042_" style="fill:#CB9851;" points="230,340 220,355 230,370 460,370 460,340 	"/>
  <rect id="XMLID_1043_" y="340" style="fill:#FFC052;" width="230" height="30"/>
</g>
  <g>
</g>
  <g>
</g>
  <g>
</g>
  <g>
</g>
  <g>
</g>
  <g>
</g>
  <g>
</g>
  <g>
</g>
  <g>
</g>
  <g>
</g>
  <g>
</g>
  <g>
</g>
  <g>
</g>
  <g>
</g>
  <g>
</g>
</svg>
