<?xml version="1.0" encoding="iso-8859-1"?>
<!-- Generator: Adobe Illustrator 19.0.0, SVG Export Plug-In . SVG Version: 6.00 Build 0)  -->
<svg width="24px" height="24px" xmlns="http://www.w3.org/2000/svg" xmlns:xlink="http://www.w3.org/1999/xlink"
     version="1.1" id="Layer_1" x="0px" y="0px" viewBox="0 0 439.48 439.48"
     style="enable-background:new 0 0 439.48 439.48;" xml:space="preserve">
<g>
	<path style="fill:#FFD039;"
        d="M224.396,329.446c-17.375,0-34.745-3.424-51.281-10.273c-33.069-13.698-58.825-39.453-72.522-72.523   c-28.276-68.266,4.257-146.809,72.522-175.085c33.068-13.698,69.494-13.698,102.563,0c33.069,13.698,58.825,39.454,72.522,72.523   c28.276,68.266-4.257,146.809-72.522,175.086C259.146,326.021,241.768,329.446,224.396,329.446z M224.396,76.299   c-15.429,0-30.857,3.041-45.541,9.124c-60.624,25.111-89.516,94.863-64.405,155.487c12.165,29.368,35.037,52.24,64.405,64.405   c29.367,12.165,61.715,12.165,91.082,0c60.624-25.111,89.516-94.862,64.405-155.487c-12.165-29.367-35.037-52.24-64.405-64.405   C255.254,79.341,239.825,76.299,224.396,76.299z"/>
  <path style="fill:#FFD039;"
        d="M224.396,277.37c-10.626,0-21.25-2.094-31.363-6.283c-20.225-8.378-35.977-24.13-44.354-44.355   c-17.294-41.751,2.603-89.787,44.354-107.081c20.224-8.377,42.502-8.377,62.727,0c20.225,8.377,35.977,24.13,44.354,44.355   c17.294,41.751-2.603,89.788-44.354,107.082C245.649,275.275,235.021,277.37,224.396,277.37z M224.396,122.546   c-9.436,0-18.872,1.86-27.853,5.58c-37.077,15.358-54.747,58.018-39.39,95.095c7.44,17.961,21.429,31.95,39.39,39.39   c17.961,7.44,37.745,7.44,55.705,0c37.077-15.358,54.747-58.017,39.39-95.095c-7.44-17.961-21.429-31.95-39.39-39.39   C243.269,124.406,233.833,122.546,224.396,122.546z"/>
  <path style="fill:#ED2E2E;"
        d="M215.202,180.659c-2.943,0-5.735-1.743-6.932-4.632l-39.071-94.323   c-0.052-0.111-0.102-0.223-0.149-0.338l-7.03-16.98c-1.584-3.827,0.233-8.214,4.061-9.799c3.827-1.585,8.214,0.233,9.799,4.06   l6.891,16.643c0.052,0.11,0.102,0.222,0.148,0.336l39.21,94.66c1.586,3.827-0.231,8.214-4.059,9.799   C217.131,180.475,216.158,180.659,215.202,180.659z"/>
  <path style="fill:#ED2E2E;"
        d="M279.843,336.719c-2.943,0-5.735-1.743-6.932-4.631l-46.24-111.641   c-1.586-3.827,0.231-8.214,4.059-9.799c3.826-1.586,8.214,0.232,9.799,4.059l46.24,111.639c1.586,3.827-0.231,8.214-4.059,9.8   C281.771,336.535,280.799,336.719,279.843,336.719z"/>
  <path style="fill:#ED2E2E;"
        d="M233.587,180.659c-0.957,0-1.929-0.184-2.867-0.573c-3.827-1.585-5.645-5.972-4.059-9.799   l46.251-111.642c1.586-3.826,5.977-5.642,9.8-4.056c3.827,1.586,5.643,5.974,4.056,9.801l-46.249,111.637   C239.322,178.916,236.53,180.659,233.587,180.659z"/>
  <path style="fill:#ED2E2E;"
        d="M168.946,336.719c-0.956,0-1.928-0.184-2.866-0.573c-3.827-1.584-5.645-5.971-4.061-9.799   l46.241-111.641c1.585-3.827,5.976-5.643,9.799-4.059c3.827,1.585,5.645,5.973,4.059,9.799l-46.239,111.639   C174.683,334.975,171.89,336.719,168.946,336.719z"/>
  <path style="fill:#ED2E2E;"
        d="M246.612,193.669c-2.943,0-5.735-1.743-6.932-4.632c-1.586-3.827,0.231-8.214,4.059-9.799   l111.642-46.241c3.827-1.583,8.214,0.233,9.799,4.061c1.584,3.827-0.233,8.214-4.061,9.799l-111.64,46.24   C248.541,193.485,247.568,193.669,246.612,193.669z"/>
  <path style="fill:#ED2E2E;"
        d="M90.543,258.31c-2.943,0-5.736-1.744-6.933-4.633c-1.584-3.827,0.233-8.214,4.061-9.799   l111.648-46.24c3.826-1.586,8.214,0.232,9.8,4.059c1.585,3.827-0.233,8.214-4.06,9.799l-111.65,46.24   C92.471,258.125,91.499,258.31,90.543,258.31z"/>
  <path style="fill:#ED2E2E;"
        d="M358.247,258.31c-0.956,0-1.928-0.184-2.866-0.572l-111.642-46.24   c-3.827-1.585-5.645-5.972-4.059-9.799c1.586-3.827,5.976-5.643,9.799-4.059l111.64,46.24c3.827,1.584,5.645,5.971,4.061,9.799   C363.983,256.565,361.19,258.31,358.247,258.31z"/>
  <path style="fill:#ED2E2E;"
        d="M202.187,193.669c-0.956,0-1.928-0.184-2.866-0.573L87.669,146.856   c-3.826-1.586-5.644-5.973-4.058-9.8c1.586-3.827,5.977-5.642,9.8-4.058l111.647,46.239c3.827,1.585,5.645,5.972,4.061,9.799   C207.923,191.926,205.13,193.669,202.187,193.669z"/>
  <path style="fill:#666666;"
        d="M353.989,374.808H94.8c-2.77,0-5.313-1.526-6.617-3.97c-1.304-2.444-1.154-5.407,0.388-7.707   l106.35-158.61c2.308-3.44,6.967-4.359,10.406-2.052c3.44,2.307,4.359,6.966,2.053,10.406l-98.521,146.933h245.131   c4.143,0,7.5,3.358,7.5,7.5S358.132,374.808,353.989,374.808z"/>
  <path style="fill:#666666;"
        d="M325.616,332.478c-2.417,0-4.789-1.166-6.236-3.324l-77.97-116.29   c-2.307-3.44-1.388-8.099,2.053-10.406c3.44-2.307,8.099-1.387,10.406,2.053l77.97,116.29c2.307,3.44,1.388,8.099-2.053,10.406   C328.504,332.067,327.052,332.478,325.616,332.478z"/>
  <path style="fill:#ED2E2E;"
        d="M399.087,322.353h-88.999c-5.885,0-10.656,4.771-10.656,10.656v34.299h110.31v-34.299   C409.743,327.123,404.972,322.353,399.087,322.353z"/>
  <path style="fill:#D82525;"
        d="M343.422,322.353h-33.333c-5.885,0-10.656,4.771-10.656,10.656v34.299h33.333v-34.299   C332.766,327.123,337.537,322.353,343.422,322.353z"/>
  <path style="fill:#B3B3B3;"
        d="M77.443,297.716v69.595h-55.5v-69.595c0-4.642,3.763-8.405,8.405-8.405h38.69   C73.68,289.311,77.443,293.074,77.443,297.716z"/>
  <path style="fill:#666666;" d="M77.443,305.471v15h-25.5c-4.14,0-7.5-3.35-7.5-7.5c0-4.14,3.36-7.5,7.5-7.5H77.443z"/>
  <path style="fill:#666666;" d="M77.443,329.471v15h-25.5c-4.14,0-7.5-3.36-7.5-7.5s3.36-7.5,7.5-7.5H77.443z"/>
  <path style="fill:#666666;"
        d="M387.929,374.808c-4.143,0-7.5-3.358-7.5-7.5v-21.335c0-4.142,3.357-7.5,7.5-7.5s7.5,3.358,7.5,7.5   v21.335C395.429,371.45,392.071,374.808,387.929,374.808z"/>
  <circle style="fill:#3B9DFF;" cx="224.396" cy="195.369" r="24.039"/>
  <path style="fill:#FFD039;"
        d="M224.396,226.925c-4.09,0-8.178-0.806-12.069-2.418c-7.783-3.224-13.846-9.286-17.069-17.069   c-3.224-7.783-3.224-16.355,0.001-24.139c3.224-7.783,9.285-13.845,17.068-17.069c7.782-3.224,16.356-3.224,24.139,0   c7.783,3.224,13.846,9.286,17.069,17.069c3.224,7.783,3.224,16.355-0.001,24.139c-3.224,7.783-9.285,13.845-17.068,17.069   C232.575,226.119,228.485,226.925,224.396,226.925z M224.396,178.82c-2.145,0-4.288,0.423-6.329,1.268   c-4.081,1.691-7.261,4.869-8.951,8.951s-1.69,8.577,0,12.658c1.69,4.082,4.869,7.26,8.951,8.951c4.08,1.691,8.576,1.691,12.658,0   c4.081-1.69,7.261-4.869,8.951-8.951s1.69-8.577,0-12.658c0,0,0,0-0.001,0c-1.689-4.081-4.868-7.26-8.95-8.951   C228.686,179.243,226.541,178.82,224.396,178.82z"/>
  <g>
		<path style="fill:#0FBC30;"
          d="M439.48,385.464H0c0-4.43,1.13-8.59,3.12-12.22c1.17-2.14,2.64-4.09,4.35-5.8    c4.61-4.62,10.99-7.47,18.03-7.47h388.48c9.65,0,18.05,5.36,22.38,13.27C438.35,376.874,439.48,381.034,439.48,385.464z"/>
    <path style="fill:#07A521;"
          d="M439.48,385.464H0c0-4.43,1.13-8.59,3.12-12.22h433.24    C438.35,376.874,439.48,381.034,439.48,385.464z"/>
	</g>
</g>
</svg>
